<svg width="81" height="80" viewBox="0 0 81 80" fill="none" xmlns="http://www.w3.org/2000/svg">
<path d="M14.7901 0C6.59704 0 0 6.5156 0 14.6075V65.3926C0 73.4845 6.59704 80.0001 14.7901 80.0001H42.6592V48.725H34.2858V37.465H42.6592V27.845C42.6592 20.287 47.6066 13.3475 59.0035 13.3475C63.6179 13.3475 67.0301 13.785 67.0301 13.785L66.7617 24.3001C66.7617 24.3001 63.2817 24.2676 59.4844 24.2676C55.3745 24.2676 54.7155 26.1378 54.7155 29.2426V37.4651H67.0883L66.5491 48.7251H54.7155V80.0002H66.2099C74.403 80.0002 81 73.4846 81 65.3926V14.6076C81 6.51568 74.403 8e-05 66.2099 8e-05H14.79L14.7901 0Z" fill="white"/>
</svg>
