<svg width="358" height="307" viewBox="0 0 358 307" fill="none" xmlns="http://www.w3.org/2000/svg">
<g class="white-logo" filter="url(#filter0_d)">
  <path fill-rule="evenodd" clip-rule="evenodd" d="M212.81 201.673L249.736 288.322L194.607 205.569L119.227 288.045L168.876 205.834L124.025 210.081L124.265 166.082L171.702 171.186L126.868 103.885L4 288.322L126.868 0L201.169 174.356L341.67 189.471L212.81 201.673Z" fill="url(#paint0_linear)"/>
</g>
<g class="pink-logo" filter="url(#filter1_d)">
  <path fill-rule="evenodd" clip-rule="evenodd" d="M218.366 206.117L255.291 292.767L200.163 210.013L124.782 292.489L174.431 210.278L129.581 214.525L129.82 170.527L177.257 175.63L132.423 108.329L9.55542 292.767L132.423 4.44431L206.725 178.8L347.225 193.915L218.366 206.117Z" fill="url(#paint1_linear)"/>
</g>
<g class="blue-logo" filter="url(#filter2_d)">
  <path fill-rule="evenodd" clip-rule="evenodd" d="M225.14 211.564L262.066 298.214L206.937 215.46L131.557 297.936L181.206 215.725L136.355 219.972L136.595 175.974L184.032 181.077L139.198 113.776L16.33 298.214L139.198 9.89139L213.499 184.247L354 199.362L225.14 211.564Z" fill="url(#paint2_linear)"/>
</g>
<defs>
<filter id="filter0_d" x="0" y="0" width="345.67" height="296.322" filterUnits="userSpaceOnUse" color-interpolation-filters="sRGB">
<feFlood flood-opacity="0" result="BackgroundImageFix"/>
<feColorMatrix in="SourceAlpha" type="matrix" values="0 0 0 0 0 0 0 0 0 0 0 0 0 0 0 0 0 0 127 0"/>
<feOffset dy="4"/>
<feGaussianBlur stdDeviation="2"/>
<feColorMatrix type="matrix" values="0 0 0 0 0 0 0 0 0 0 0 0 0 0 0 0 0 0 0.25 0"/>
<feBlend mode="normal" in2="BackgroundImageFix" result="effect1_dropShadow"/>
<feBlend mode="normal" in="SourceGraphic" in2="effect1_dropShadow" result="shape"/>
</filter>
<filter id="filter1_d" x="5.55542" y="4.44431" width="345.67" height="296.322" filterUnits="userSpaceOnUse" color-interpolation-filters="sRGB">
<feFlood flood-opacity="0" result="BackgroundImageFix"/>
<feColorMatrix in="SourceAlpha" type="matrix" values="0 0 0 0 0 0 0 0 0 0 0 0 0 0 0 0 0 0 127 0"/>
<feOffset dy="4"/>
<feGaussianBlur stdDeviation="2"/>
<feColorMatrix type="matrix" values="0 0 0 0 0 0 0 0 0 0 0 0 0 0 0 0 0 0 0.25 0"/>
<feBlend mode="normal" in2="BackgroundImageFix" result="effect1_dropShadow"/>
<feBlend mode="normal" in="SourceGraphic" in2="effect1_dropShadow" result="shape"/>
</filter>
<filter id="filter2_d" x="12.33" y="9.89139" width="345.67" height="296.322" filterUnits="userSpaceOnUse" color-interpolation-filters="sRGB">
<feFlood flood-opacity="0" result="BackgroundImageFix"/>
<feColorMatrix in="SourceAlpha" type="matrix" values="0 0 0 0 0 0 0 0 0 0 0 0 0 0 0 0 0 0 127 0"/>
<feOffset dy="4"/>
<feGaussianBlur stdDeviation="2"/>
<feColorMatrix type="matrix" values="0 0 0 0 0 0 0 0 0 0 0 0 0 0 0 0 0 0 0.25 0"/>
<feBlend mode="normal" in2="BackgroundImageFix" result="effect1_dropShadow"/>
<feBlend mode="normal" in="SourceGraphic" in2="effect1_dropShadow" result="shape"/>
</filter>
<linearGradient id="paint0_linear" x1="341.67" y1="189.47" x2="51.6352" y2="187.891" gradientUnits="userSpaceOnUse">
<stop stop-color="#68E3F9"/>
<stop offset="1" stop-color="white"/>
</linearGradient>
<linearGradient id="paint1_linear" x1="347.226" y1="193.915" x2="57.1906" y2="192.335" gradientUnits="userSpaceOnUse">
<stop stop-color="#F55A9B"/>
<stop offset="1" stop-color="#980089"/>
</linearGradient>
<linearGradient id="paint2_linear" x1="354" y1="199.362" x2="63.9652" y2="197.782" gradientUnits="userSpaceOnUse">
<stop stop-color="#4F4ED7"/>
<stop offset="1" stop-color="#00F0FF"/>
</linearGradient>
</defs>
</svg>
