<svg width="81" height="80" viewBox="0 0 81 80" fill="none" xmlns="http://www.w3.org/2000/svg">
<path d="M27.3691 55.8333C27.5098 55.625 27.457 55.3993 27.2109 55.1562C26.8945 54.9132 26.6484 54.8785 26.4727 55.0521C26.332 55.2604 26.3848 55.4861 26.6309 55.7292C26.9473 55.9722 27.1934 56.0069 27.3691 55.8333ZM25.8926 53.6979C25.7168 53.4549 25.5059 53.3854 25.2598 53.4896C25.0488 53.6285 25.0488 53.8368 25.2598 54.1146C25.5059 54.3924 25.7168 54.4792 25.8926 54.375C26.1035 54.2361 26.1035 54.0104 25.8926 53.6979ZM23.7305 51.6146C23.8008 51.4757 23.7129 51.3368 23.4668 51.1979C23.2207 51.1285 23.0801 51.1632 23.0449 51.3021C22.9395 51.4757 23.0098 51.6146 23.2559 51.7188C23.5371 51.7882 23.6953 51.7535 23.7305 51.6146ZM24.8379 52.8125C24.9082 52.7778 24.9346 52.6997 24.917 52.5781C24.8994 52.4566 24.8379 52.3611 24.7324 52.2917C24.5215 52.0486 24.3457 51.9965 24.2051 52.1354C24.0645 52.2743 24.082 52.4653 24.2578 52.7083C24.4687 52.9167 24.6621 52.9514 24.8379 52.8125ZM29.373 56.7188C29.4434 56.4757 29.2852 56.2847 28.8984 56.1458C28.582 56.0417 28.3535 56.1111 28.2129 56.3542C28.1426 56.5972 28.3008 56.7882 28.6875 56.9271C29.0039 57.0312 29.2324 56.9618 29.373 56.7188ZM31.5879 56.875C31.5879 56.5972 31.377 56.4583 30.9551 56.4583C30.6035 56.4583 30.4277 56.5972 30.4277 56.875C30.4277 57.1528 30.6211 57.2917 31.0078 57.2917C31.3945 57.2917 31.5879 57.1528 31.5879 56.875ZM33.6445 56.5104C33.5742 56.2674 33.3457 56.1806 32.959 56.25C32.5723 56.3194 32.4141 56.4757 32.4844 56.7188C32.5547 56.9965 32.7656 57.1007 33.1172 57.0312C33.4687 56.9618 33.6445 56.7882 33.6445 56.5104ZM67.5 40C67.5 32.6389 64.8633 26.3542 59.5898 21.1458C54.3164 15.9375 47.9531 13.3333 40.5 13.3333C33.0469 13.3333 26.6836 15.9375 21.4102 21.1458C16.1367 26.3542 13.5 32.6389 13.5 40C13.5 45.7986 15.2227 51.0156 18.668 55.651C22.1133 60.2865 26.543 63.5069 31.957 65.3125C32.5898 65.4167 33.0557 65.3299 33.3545 65.0521C33.6533 64.7743 33.8027 64.4271 33.8027 64.0104C33.8027 62.2049 33.7852 60.5556 33.75 59.0625C33.5391 59.0972 33.2666 59.1406 32.9326 59.1927C32.5986 59.2448 31.9746 59.2795 31.0605 59.2969C30.1465 59.3142 29.3027 59.2448 28.5293 59.0885C27.7559 58.9323 26.9912 58.5851 26.2353 58.0469C25.4795 57.5087 24.9609 56.7882 24.6797 55.8854C23.8711 53.8368 22.8691 52.5521 21.6738 52.0312C21.6035 51.9965 21.5244 51.9358 21.4365 51.849L21.0146 51.4323L20.6455 50.9375L20.8564 50.5469L21.8848 50.3646C22.0957 50.3646 22.3594 50.3993 22.6758 50.4688C22.9922 50.5382 23.5195 50.8073 24.2578 51.276C24.9961 51.7448 25.5762 52.3611 25.998 53.125C26.5605 54.0972 27.2197 54.8264 27.9756 55.3125C28.7314 55.7986 29.4961 56.0417 30.2695 56.0417C31.043 56.0417 31.7109 55.9809 32.2734 55.8594C32.8359 55.7378 33.3633 55.5729 33.8555 55.3646C34.1016 53.7326 34.6816 52.5347 35.5957 51.7708C33.873 51.5625 32.3613 51.2413 31.0605 50.8073C29.7598 50.3733 28.4766 49.6962 27.2109 48.776C25.9453 47.8559 24.9697 46.5365 24.2842 44.8177C23.5986 43.099 23.2559 41.0243 23.2559 38.5938C23.2559 35.8507 24.1875 33.4722 26.0508 31.4583C25.207 29.3056 25.2949 26.9444 26.3145 24.375C26.9824 24.1667 27.9404 24.2969 29.1885 24.7656C30.4365 25.2344 31.5 25.7465 32.3789 26.3021L33.75 27.1354C35.7891 26.5451 38.0391 26.25 40.5 26.25C42.9609 26.25 45.2109 26.5451 47.25 27.1354C47.6367 26.8924 48.1377 26.5799 48.7529 26.1979C49.3682 25.816 50.3437 25.3646 51.6797 24.8438C53.0156 24.3229 54.0176 24.1667 54.6855 24.375C55.7051 26.9444 55.793 29.3056 54.9492 31.4583C56.8125 33.4722 57.7441 35.8507 57.7441 38.5938C57.7441 40.5729 57.498 42.3177 57.0059 43.8281C56.5137 45.3385 55.8896 46.5538 55.1338 47.474C54.3779 48.3941 53.4375 49.1667 52.3125 49.7917C51.1875 50.4167 50.0889 50.8681 49.0166 51.1458C47.9443 51.4236 46.7402 51.6319 45.4043 51.7708C46.6348 52.8472 47.25 54.4965 47.25 56.7188C47.25 58.1076 47.2412 59.6528 47.2236 61.3542C47.2061 63.0556 47.1973 63.941 47.1973 64.0104C47.1973 64.4271 47.3467 64.7743 47.6455 65.0521C47.9443 65.3299 48.4102 65.4167 49.043 65.3125C54.457 63.5069 58.8867 60.2865 62.332 55.651C65.7773 51.0156 67.5 45.7986 67.5 40ZM81 15V65C81 69.1319 79.5146 72.6649 76.5439 75.599C73.5732 78.533 69.9961 80 65.8125 80H15.1875C11.0039 80 7.42676 78.533 4.45605 75.599C1.48535 72.6649 0 69.1319 0 65V15C0 10.8681 1.48535 7.33507 4.45605 4.40104C7.42676 1.46701 11.0039 0 15.1875 0H65.8125C69.9961 0 73.5732 1.46701 76.5439 4.40104C79.5146 7.33507 81 10.8681 81 15Z" fill="white"/>
</svg>
