<svg width="81" height="80" viewBox="0 0 81 80" fill="none" xmlns="http://www.w3.org/2000/svg">
<path d="M15.8812 0.0200043C7.1561 0.0200043 0.0151367 7.07264 0.0151367 15.6902V64.3175C0.0151367 72.9348 7.15593 79.985 15.8812 79.985H65.1163C73.8415 79.985 80.9797 72.9349 80.9797 64.3175V15.6902C80.9797 7.0728 73.8415 0.0200043 65.1163 0.0200043H15.8812ZM19.8717 13.2158C24.0552 13.2158 26.6321 15.9283 26.7116 19.4938C26.7116 22.9806 24.055 25.7694 19.7908 25.7694H19.7123C15.6084 25.7694 12.9559 22.9808 12.9559 19.4938C12.9559 15.9284 15.6887 13.2158 19.8716 13.2158H19.8717ZM55.9232 29.8806C63.9688 29.8806 70.0002 35.0744 70.0002 46.2355V67.0714H57.773V47.6325C57.773 42.7477 56.0034 39.415 51.5784 39.415C48.2004 39.415 46.1869 41.6613 45.3029 43.8312C44.9799 44.6075 44.9006 45.6918 44.9006 46.7778V67.0714H32.6734C32.6734 67.0714 32.8338 34.1424 32.6734 30.7328H44.9031V35.8787C46.5279 33.4027 49.4344 29.8806 55.9232 29.8806V29.8806ZM13.6772 30.7354H25.9044V67.0716H13.6772V30.7354V30.7354Z" fill="white"/>
</svg>
